<?xml version="1.0" encoding="UTF-8" standalone="no"?>
<svg
   xmlns:dc="http://purl.org/dc/elements/1.1/"
   xmlns:cc="http://creativecommons.org/ns#"
   xmlns:rdf="http://www.w3.org/1999/02/22-rdf-syntax-ns#"
   xmlns:svg="http://www.w3.org/2000/svg"
   xmlns="http://www.w3.org/2000/svg"
   id="svg32"
   version="1.1"
   style="overflow:visible"
   viewBox="-240 -193 480 379"
   height="1516px"
   width="1920px">
  <metadata
     id="metadata38">
    <rdf:RDF>
      <cc:Work
         rdf:about="">
        <dc:format>image/svg+xml</dc:format>
        <dc:type
           rdf:resource="http://purl.org/dc/dcmitype/StillImage" />
      </cc:Work>
    </rdf:RDF>
  </metadata>
  <defs
     id="defs36" />
  <rect
     id="rect2"
     fill-opacity="0"
     fill="rgb(0,0,0)"
     height="379"
     width="480"
     y="-193"
     x="-240" />
  <svg
     id="svg30"
     version="1.1"
     y="-250"
     x="-250"
     viewBox="-250 -250 500 500"
     height="500"
     width="500"
     style="overflow:visible">
    <g
       style="fill:#ffffff;stroke-linejoin:round"
       id="g28">
      <path
         style="fill:#e8a524;fill-opacity:1;stroke:none;stroke-linecap:butt;stroke-linejoin:round"
         id="path4"
         d="m 20.649999,-152.1194 -32.9067,101.643 c 17.1436,4.96146 35.7227,4.79467 46.5944,-2.77491 32.1424,-22.3797 15.9934,-82.3586 -13.6876,-98.8685 z" />
      <path
         style="fill:#ffb930;fill-opacity:1;stroke:none;stroke-linecap:butt;stroke-linejoin:round"
         id="path6"
         d="m 4.427999,-156.3755 c -0.6187,0.0139 -1.2402,0.0459 -1.8639,0.0993 -18.3762,1.57063 2.14838,19.7475 -5.57966,33.0554 -8.60721,14.8217 -47.718,2.78143 -48.9452,34.772 -0.67998,17.7245 18.4044,31.8096 39.7039,37.9738 48.4774,-18.4245 51.8525,-67.708 32.906799,-101.64 -4.6e-4,-2.5e-4 4.2e-4,-0.003 0,-0.003 -5.07012,-2.82025 -10.5352,-4.37829 -16.222001,-4.25707 z" />
      <path
         style="fill:none;stroke:#444444;stroke-width:10;stroke-linecap:butt;stroke-linejoin:round;stroke-opacity:1"
         id="path8"
         d="m -51.961001,-88.45 c 1.22731,-31.9906 40.3372,-19.9503 48.9443,-34.772 7.72803,-13.3078 -12.7949,-31.4842 5.58134,-33.0547 39.9177,-3.41182 70.0011,76.4094 31.771,103.028 -24.3789,16.9742 -87.5238,-3.2106 -86.2966,-35.2013 z" />
      <path
         style="fill:#e8a524;fill-opacity:1;stroke:none;stroke-linecap:butt;stroke-linejoin:round"
         id="path10"
         d="m 53.872999,-65.275001 v 83.121 c 23.0236,0 41.5588,-18.536 41.5588,-41.5605 0,-23.0245 -18.5352,-41.5605 -41.5588,-41.5605 z" />
      <path
         style="fill:#ffb930;fill-opacity:1;stroke:none;stroke-linecap:butt;stroke-linejoin:round"
         id="path12"
         d="m -53.873,-65.275001 c -23.0236,0 -41.5588,18.536 -41.5588,41.5605 0,23.0245 18.5352,41.5605 41.5588,41.5605 H 53.872 c 28.278,-30.466 23.6022,-57.7167 0,-83.121 z" />
      <path
         style="fill:none;stroke:#444444;stroke-width:10;stroke-linecap:butt;stroke-linejoin:round;stroke-opacity:1"
         id="path14"
         d="M -53.873,-65.273 H 53.872 c 23.0236,0 41.5588,18.536 41.5588,41.5605 0,23.0245 -18.5352,41.5605 -41.5588,41.5605 H -53.873 c -23.0236,0 -41.5588,-18.536 -41.5588,-41.5605 0,-23.0245 18.5352,-41.5605 41.5588,-41.5605 z" />
      <path
         style="fill:#e8a524;fill-opacity:1;stroke:none;stroke-linecap:butt;stroke-linejoin:round"
         id="path16"
         d="m 74.002,2.453 v 83.121 h 10.6542 c 23.0236,0 41.5588,-18.536 41.5588,-41.5605 C 126.215,20.989 107.6798,2.453 84.6562,2.453 Z" />
      <path
         style="fill:#ffb930;fill-opacity:1;stroke:none;stroke-linecap:butt;stroke-linejoin:round"
         id="path18"
         d="m -84.657001,2.453 c -23.023599,0 -41.558799,18.536 -41.558799,41.5605 0,23.0245 18.5352,41.5605 41.558799,41.5605 h 158.659 c 28.278001,-30.466 23.6022,-57.7167 0,-83.121 z" />
      <path
         style="fill:none;stroke:#444444;stroke-width:10;stroke-linecap:butt;stroke-linejoin:round;stroke-opacity:1"
         id="path20"
         d="m -84.657001,2.455 h 169.314 c 23.023601,0 41.558801,18.536 41.558801,41.5605 0,23.0245 -18.5352,41.5605 -41.558801,41.5605 h -169.314 c -23.023599,0 -41.558799,-18.536 -41.558799,-41.5605 0,-23.0245 18.5352,-41.5605 41.558799,-41.5605 z" />
      <path
         style="fill:#e8a524;fill-opacity:1;stroke:none;stroke-linecap:butt;stroke-linejoin:round"
         id="path22"
         d="M 95.788,73.259999 V 156.381 h 19.6521 c 23.0236,0 41.5588,-18.536 41.5588,-41.5605 0,-23.024501 -18.5352,-41.560501 -41.5588,-41.560501 z" />
      <path
         style="fill:#ffb930;fill-opacity:1;stroke:none;stroke-linecap:butt;stroke-linejoin:round"
         id="path24"
         d="m -115.441,73.259999 c -23.0236,0 -41.5588,18.536 -41.5588,41.560501 0,23.0245 18.5352,41.5605 41.5588,41.5605 h 211.23 c 28.278,-30.466 23.6022,-57.716701 0,-83.121001 z" />
      <path
         style="fill:none;stroke:#444444;stroke-width:10;stroke-linecap:butt;stroke-linejoin:round;stroke-opacity:1"
         id="path26"
         d="m -115.441,73.262 h 230.882 c 23.0236,0 41.5588,18.536 41.5588,41.5605 0,23.0245 -18.5352,41.5605 -41.5588,41.5605 h -230.882 c -23.0236,0 -41.5588,-18.536 -41.5588,-41.5605 0,-23.0245 18.5352,-41.5605 41.5588,-41.5605 z" />
    </g>
  </svg>
</svg>
